<?xml version="1.0" encoding="UTF-8"?><svg id="Capa_2" xmlns="http://www.w3.org/2000/svg" viewBox="0 0 1004.35 371.16"><defs><style>.cls-1{fill:#c99014;}</style></defs><g id="Layer_1"><path d="M446.82,368.4c4.27-7.45,7.86-13.72,11.45-19.97,12.39-21.56,25.05-42.98,37.01-64.78,3.17-5.78,6.7-7.33,12.98-7.3,65.17.24,130.35.15,195.52.15,3.22,0,6.45,0,9.67,0,.07-.4.14-.8.21-1.2-22.06-4.85-44.11-9.75-66.19-14.53-44.37-9.62-88.85-18.72-133.08-28.9-36.67-8.44-61.02-31.42-69.52-67.95-8.56-36.8,1.32-69.3,31.16-93.88,16.31-13.43,35.85-19.87,57.02-19.91,89.54-.16,179.08-.07,268.62-.05.79,0,1.58.24,2.55.4-.19,4.35-3.24,6.95-5.46,9.86-18.99,24.95-38.25,49.7-57.02,74.81-3.99,5.33-8.2,7-14.68,6.98-62.21-.24-124.42-.14-189.16-.14,10.67,4.56,19.86,5.49,28.68,7.4,61.27,13.24,122.58,26.26,183.91,39.19,44.08,9.3,73.63,45.77,73.09,90.57-.53,44.12-31.07,80.36-74.7,88.34-5.45,1-11.1,1.17-16.66,1.18-93.06.07-186.13.05-279.19.04-1.45,0-2.9-.13-6.2-.28Z"/><path d="M413.38,7.87c0-5.89-1.06-7.91-7.48-7.87-42.85.32-85.7.28-128.54.03-5.44-.03-8.33,2.05-11.33,6.18-43.73,59.79-87.67,119.47-131.51,179.23-40.91,55.73-81.78,111.5-122.62,167.26-4.06,5.54-7.69,11.33-11.89,17.58,1.91.35,2.68.64,3.49.64,37.87.04,75.71-.07,113.58.18,4.98.04,7.34-2.4,9.85-5.86,20.05-27.78,40.24-55.45,60.25-83.26,2.58-3.56,4.98-5.61,9.85-5.54,28.77.28,57.53.32,86.3,0,5.75-.07,6.88,1.69,6.32,6.92-3.74,34.38-13.13,65.86-45.46,87.6,55.03,0,107.86-.11,160.7.14,6.14,0,8.58-.88,8.54-7.98-.25-118.42-.21-236.83-.04-355.25ZM286.53,237.68c-25.69,5.47-51.39,11.05-79.27,17.05,28.06-38.33,54.6-74.58,82.7-112.94v30.95c0,19.34,0,38.68-.04,58.03-.04,2.72.95,5.96-3.39,6.92Z"/><path class="cls-1" d="M780.68,142.15c19.12-26.38,36.7-50.8,54.46-75.1,14.87-20.34,30.02-40.48,44.84-60.85,2.98-4.09,5.98-6.21,11.43-6.17,34.92.28,69.84.33,104.75-.03,6.83-.07,8.2,2.09,8.19,8.46-.18,118.1-.14,236.19-.1,354.29,0,4.68.31,8.44-6.55,8.41-53.94-.22-107.89-.12-161.84-.12,0-.82-.22-1.68.03-1.85,30.7-20.48,42.02-51.59,43.4-85.97,1.8-44.77.48-89.65.77-134.48.04-5.74-2.27-6.71-7.27-6.68-25.23.19-50.47.09-75.7.09h-16.41Z"/></g></svg>